<svg id="Group_4" data-name="Group 4" xmlns="http://www.w3.org/2000/svg" width="1920" height="444" viewBox="0 0 1920 444">
  <defs>
    <style>
      .cls-1 {
        fill: #203881;
      }

      .cls-2 {
        fill: #fff;
      }
    </style>
  </defs>
  <rect id="Rectangle_14" data-name="Rectangle 14" class="cls-1" width="1920" height="444"/>
  <path id="Path_55" data-name="Path 55" class="cls-2" d="M1920,38.2s-88.63,10.339-148.248,27.48c-30.4,8.742-74.723,29.008-116.554,57.825-39.861,27.46-77.184,63.307-109.567,80.983-66.088,36.074-153.457,40.464-153.457,40.464s-78.208,3.626-160.9-4.39-170.253-40.464-170.253-40.464-92.189-37.315-160.329-56.115-135.325-25.194-217.78-12.215S561.138,178.813,430.966,191.7s-219.018,0-219.018,0S144.317,182.715,91.329,165.4,0,122.441,0,122.441V38.2Z" transform="translate(1920 482.197) rotate(180)"/>
</svg>
