<svg xmlns="http://www.w3.org/2000/svg" width="640" height="640" viewBox="0 0 640 640">
  <defs>
    <style>
      .cls-1 {
        fill: #fff;
      }

      .cls-2 {
        fill: #203881;
      }
    </style>
  </defs>
  <g id="Group_11" data-name="Group 11" transform="translate(0 -9)">
    <g id="Group_10" data-name="Group 10" transform="translate(0 9)">
      <circle id="Ellipse_8" data-name="Ellipse 8" class="cls-1" cx="320" cy="320" r="320"/>
      <path id="Path_18" data-name="Path 18" class="cls-2" d="M39.234,36.485c11.982-10.23,28.294-20.973,43.59-26.7a160.123,160.123,0,0,1,48.481-9.8L265.514-.053s52.637-.115,89.409,34.359,36,82.5,36,82.5a165.082,165.082,0,0,1-2.141,17.951,85.372,85.372,0,0,1-10.29,26.9c-15.89,27.9-29.792,29.281-29.792,29.281l-34.69-10.674-50.33-19.833s27-5.065,30.963-41.911-30.963-45.794-30.963-45.794H196.87a228.6,228.6,0,0,0-30.406,3.964A139.287,139.287,0,0,0,144.3,83.532,114.2,114.2,0,0,0,113.49,101.55s-18.5,13.872-28.364,34.336-10.96,45.165-10.96,45.165v31.939S74,237.912,83.653,258.855s30.127,37.921,30.127,37.921a150.841,150.841,0,0,0,34.939,19.666c19.457,7.464,42.317,11.217,42.317,11.217H262.1s34.026-6.222,32.033-45.219-35.583-42.433-35.583-42.433l-62.434-.258a43.611,43.611,0,0,1-9-1.457c-2.2-.617-4.658-2.178-7.019-3.376-4.6-2.333-7.777-7.151-8.474-8.213-3.621-5.508-3.371-14.324-3.371-14.324v-25.14a30.917,30.917,0,0,1,1.657-10.788c1.536-3.938,4.53-7.345,8.044-10.441,7.3-6.437,17.5-5.585,17.5-5.585h70.057L348.7,190.933a101.811,101.811,0,0,1,23.923,15.537,105.621,105.621,0,0,1,20.113,23.956c4.107,6.75,7.607,12.994,9.881,20.638a133.674,133.674,0,0,1,4.969,36.642s-2.6,36.473-17.325,61.169-36.573,40.266-63.386,48.589-63.075,9.2-63.075,9.2L4.725,407.23a6.648,6.648,0,0,1-3.5-1.395A5.539,5.539,0,0,1,0,402.509V112.094s.926-16.68,10.2-37.028A116.814,116.814,0,0,1,39.234,36.485Z" transform="translate(132.201 102.411)"/>
    </g>
  </g>
</svg>
