<svg xmlns="http://www.w3.org/2000/svg" width="674.974" height="674.476" viewBox="0 0 674.974 674.476">
  <defs>
    <style>
      .cls-1 {
        fill: #203881;
      }
    </style>
  </defs>
  <path id="Path_18" data-name="Path 18" class="cls-1" d="M64.971,60.454c19.841-16.94,46.854-34.732,72.185-44.208C179.223.507,217.439.017,217.439.017l222.245-.07s87.166-.191,148.06,56.9,59.619,136.612,59.619,136.612a273.362,273.362,0,0,1-3.545,29.727c-2.948,15.276-8.266,29.14-17.04,44.545-26.313,46.2-49.335,48.489-49.335,48.489L520,298.542,436.652,265.7s44.719-8.387,51.274-69.4-51.274-75.835-51.274-75.835H326.013a378.549,378.549,0,0,0-50.352,6.564,230.66,230.66,0,0,0-36.7,11.339C207.62,150.789,187.936,168.2,187.936,168.2s-30.64,22.971-46.97,56.861-18.149,74.793-18.149,74.793v52.891s-.275,41.268,15.71,75.95,49.89,62.8,49.89,62.8,25.638,20.207,57.859,32.567,70.076,18.576,70.076,18.576H434.028s56.346-10.3,53.047-74.883-58.925-70.269-58.925-70.269l-103.389-.427a72.22,72.22,0,0,1-14.9-2.413c-3.644-1.022-7.713-3.607-11.623-5.591-7.615-3.864-12.879-11.842-14.033-13.6-6-9.122-5.582-23.72-5.582-23.72V310.1s-.4-9.82,2.743-17.865c2.543-6.521,7.5-12.162,13.32-17.29,12.1-10.66,28.982-9.248,28.982-9.248H439.685l137.758,50.52s21.386,9.379,39.617,25.729a174.908,174.908,0,0,1,33.307,39.67c6.8,11.178,12.6,21.518,16.363,34.177,8.993,30.212,8.229,60.678,8.229,60.678s-4.311,60.4-28.689,101.3S585.705,644.448,541.3,658.231s-104.451,15.233-104.451,15.233L0,674.422V185.661s1.533-27.623,16.9-61.318C26.44,103.414,43.445,78.833,64.971,60.454Z" transform="translate(0 0.053)"/>
</svg>
