<svg xmlns="http://www.w3.org/2000/svg" width="55.514" height="59" viewBox="0 0 55.514 59">
  <g id="Group_65" data-name="Group 65" transform="translate(-4396.97 -3283)">
    <path id="Path_102" data-name="Path 102" d="M-9.518,0h26.98L12.184,20.528H-14.8Z" transform="translate(4432.383 3321.015)" fill="#203881"/>
    <rect id="Rectangle_58" data-name="Rectangle 58" width="27.751" height="22.049" transform="translate(4424.732 3283)" fill="#203881"/>
    <path id="Path_103" data-name="Path 103" d="M12.925,0V6.935H0Z" transform="translate(4444.5 3311.603) rotate(180)" fill="#203881"/>
    <ellipse id="Ellipse_12" data-name="Ellipse 12" cx="6.653" cy="6.843" rx="6.653" ry="6.843" transform="translate(4402.684 3301.627)" fill="#203881"/>
    <path id="Path_104" data-name="Path 104" d="M.188,12.513A17.332,17.332,0,0,1,2.9,6.887,10.744,10.744,0,0,1,8.264,3.1a11.924,11.924,0,0,1,6.07-.561,13.719,13.719,0,0,1,6.772,3.579L18.264,16.852H7.071a1.452,1.452,0,0,0-1.158,1.4A2.173,2.173,0,0,0,6.58,20.22H17.317l-1.368,5.649H4.756S3.394,25.95,1.563,23.9-.019,20.536-.019,20.536Z" transform="translate(4397 3316.131)" fill="#203881"/>
  </g>
</svg>
