<svg xmlns="http://www.w3.org/2000/svg" xmlns:xlink="http://www.w3.org/1999/xlink" width="705.859" height="730.5" viewBox="0 0 705.859 730.5">
  <defs>
    <filter id="Rectangle_84" x="277.267" y="320.959" width="296.178" height="109.5" filterUnits="userSpaceOnUse">
      <feOffset dx="10" dy="12" input="SourceAlpha"/>
      <feGaussianBlur stdDeviation="2.5" result="blur"/>
      <feFlood flood-opacity="0.051"/>
      <feComposite operator="in" in2="blur"/>
      <feComposite in="SourceGraphic"/>
    </filter>
    <filter id="Rectangle_84-2" x="28.638" y="318" width="257.721" height="122.5" filterUnits="userSpaceOnUse">
      <feOffset dx="10" dy="12" input="SourceAlpha"/>
      <feGaussianBlur stdDeviation="2.5" result="blur-2"/>
      <feFlood flood-opacity="0.051"/>
      <feComposite operator="in" in2="blur-2"/>
      <feComposite in="SourceGraphic"/>
    </filter>
  </defs>
  <g id="Group_171" data-name="Group 171" transform="translate(-36.364 -18.5)">
    <g id="Group_160" data-name="Group 160">
      <g id="Rectangle_119" data-name="Rectangle 119" transform="translate(509.223 67)" fill="#fff" stroke="#b3bee1" stroke-width="0.5">
        <rect width="233" height="264" rx="2" stroke="none"/>
        <rect x="0.25" y="0.25" width="232.5" height="263.5" rx="1.75" fill="none"/>
      </g>
      <text id="COMPLAINT" transform="translate(588.723 101)" fill="#272b2f" font-size="13" font-family="Roboto-Bold, Roboto" font-weight="700"><tspan x="0" y="0">COMPLAINT</tspan></text>
      <text id="Ticket_No:" data-name="Ticket No:" transform="translate(530.223 126)" fill="#272b2f" font-size="10" font-family="Roboto-Regular, Roboto"><tspan x="0" y="0">Ticket No:</tspan></text>
      <text id="Type:_" data-name="Type: " transform="translate(530.223 141)" fill="#272b2f" font-size="10" font-family="Roboto-Regular, Roboto"><tspan x="0" y="0">Type: </tspan></text>
      <text id="Partner:" transform="translate(530.223 156)" fill="#272b2f" font-size="10" font-family="Roboto-Regular, Roboto"><tspan x="0" y="0">Partner:</tspan></text>
      <text id="Department:" transform="translate(530.223 170)" fill="#272b2f" font-size="10" font-family="Roboto-Regular, Roboto"><tspan x="0" y="0">Department:</tspan></text>
      <text id="Date:" transform="translate(530.223 185)" fill="#272b2f" font-size="10" font-family="Roboto-Regular, Roboto"><tspan x="0" y="0">Date:</tspan></text>
      <text id="Email:" transform="translate(530.223 199)" fill="#272b2f" font-size="10" font-family="Roboto-Regular, Roboto"><tspan x="0" y="0">Email:</tspan></text>
      <text id="Phone_No:" data-name="Phone No:" transform="translate(530.223 213)" fill="#272b2f" font-size="10" font-family="Roboto-Regular, Roboto"><tspan x="0" y="0">Phone No:</tspan></text>
      <text id="Assigned:" transform="translate(530.223 228)" fill="#272b2f" font-size="10" font-family="Roboto-Regular, Roboto"><tspan x="0" y="0">Assigned:</tspan></text>
      <text id="Rating:" transform="translate(530.223 242)" fill="#272b2f" font-size="10" font-family="Roboto-Regular, Roboto"><tspan x="0" y="0">Rating:</tspan></text>
      <text id="Status:" transform="translate(530.223 271)" fill="#272b2f" font-size="10" font-family="Roboto-Regular, Roboto"><tspan x="0" y="0">Status:</tspan></text>
      <text id="Description:" transform="translate(530.223 285)" fill="#272b2f" font-size="10" font-family="Roboto-Regular, Roboto"><tspan x="0" y="0">Description:</tspan></text>
      <text id="C000001" transform="translate(621.223 126)" fill="#272b2f" font-size="10" font-family="Roboto-Bold, Roboto" font-weight="700"><tspan x="0" y="0">C000001</tspan></text>
      <text id="Document_Processing" data-name="Document Processing" transform="translate(621.223 141)" fill="#272b2f" font-size="10" font-family="Roboto-Bold, Roboto" font-weight="700"><tspan x="0" y="0">Document Processing</tspan></text>
      <text id="My_Company" data-name="My Company" transform="translate(621.223 155)" fill="#272b2f" font-size="10" font-family="Roboto-Bold, Roboto" font-weight="700"><tspan x="0" y="0">My Company</tspan></text>
      <text id="FNC" transform="translate(621.223 170)" fill="#272b2f" font-size="10" font-family="Roboto-Bold, Roboto" font-weight="700"><tspan x="0" y="0">FNC</tspan></text>
      <text id="_09_08_2022" data-name="09/08/2022" transform="translate(621.223 184)" fill="#272b2f" font-size="10" font-family="Roboto-Bold, Roboto" font-weight="700"><tspan x="0" y="0">09/08/2022</tspan></text>
      <text id="_5" data-name="5" transform="translate(621.223 242)" fill="#272b2f" font-size="10" font-family="Roboto-Bold, Roboto" font-weight="700"><tspan x="0" y="0">5</tspan></text>
      <text id="Close_Date:" data-name="Close Date:" transform="translate(530.223 256)" fill="#272b2f" font-size="10" font-family="Roboto-Regular, Roboto"><tspan x="0" y="0">Close Date:</tspan></text>
      <text id="Closed" transform="translate(621.223 271)" fill="#272b2f" font-size="10" font-family="Roboto-Bold, Roboto" font-weight="700"><tspan x="0" y="0">Closed</tspan></text>
      <text id="Missing_Files" data-name="Missing Files" transform="translate(621.223 285)" fill="#272b2f" font-size="10" font-family="Roboto-Bold, Roboto" font-weight="700"><tspan x="0" y="0">Missing Files</tspan></text>
      <path id="Icon_metro-file-pdf" data-name="Icon metro-file-pdf" d="M21,6.975a2.922,2.922,0,0,1,.6.954,2.9,2.9,0,0,1,.251,1.1V23.5A1.2,1.2,0,0,1,20.651,24.7H3.776A1.2,1.2,0,0,1,2.571,23.5V3.409A1.2,1.2,0,0,1,3.776,2.2h11.25a2.9,2.9,0,0,1,1.1.251,2.922,2.922,0,0,1,.954.6ZM15.428,3.911V8.632h4.721a1.372,1.372,0,0,0-.276-.515l-3.93-3.93a1.371,1.371,0,0,0-.515-.276ZM20.249,23.1V10.239H15.026a1.2,1.2,0,0,1-1.205-1.205V3.811H4.178V23.1H20.249ZM13.8,15.651a9.553,9.553,0,0,0,1.055.7,12.46,12.46,0,0,1,1.469-.088q1.846,0,2.222.615a.607.607,0,0,1,.025.653.036.036,0,0,1-.013.025l-.025.025V17.6q-.075.477-.891.477a5.179,5.179,0,0,1-1.444-.251,9.155,9.155,0,0,1-1.632-.665A22.609,22.609,0,0,0,9.64,18.2q-1.921,3.29-3.039,3.29A.73.73,0,0,1,6.25,21.4l-.3-.151q-.013-.013-.075-.063a.519.519,0,0,1-.075-.452,2.727,2.727,0,0,1,.7-1.149,6.068,6.068,0,0,1,1.657-1.212.183.183,0,0,1,.289.075.072.072,0,0,1,.025.05q.653-1.067,1.343-2.473a19.164,19.164,0,0,0,1.306-3.29,10.15,10.15,0,0,1-.383-2,4.882,4.882,0,0,1,.082-1.6q.138-.5.527-.5h.276a.529.529,0,0,1,.439.188,1,1,0,0,1,.113.854.272.272,0,0,1-.05.1.327.327,0,0,1,.013.1v.377a16.441,16.441,0,0,1-.176,2.411A6.352,6.352,0,0,0,13.8,15.651Zm-7.232,5.16a5.544,5.544,0,0,0,1.72-1.984,7.158,7.158,0,0,0-1.1,1.055A4.173,4.173,0,0,0,6.563,20.811Zm5-11.551a3.733,3.733,0,0,0-.025,1.657q.013-.088.088-.552,0-.038.088-.54a.282.282,0,0,1,.05-.1.036.036,0,0,1-.013-.025.025.025,0,0,0-.006-.019.025.025,0,0,1-.006-.019.723.723,0,0,0-.163-.452.036.036,0,0,1-.013.025V9.26ZM10,17.559a18.417,18.417,0,0,1,3.566-1.017,1.894,1.894,0,0,1-.163-.119,2.249,2.249,0,0,1-.2-.169,6.651,6.651,0,0,1-1.595-2.21,16.779,16.779,0,0,1-1.042,2.473q-.377.7-.565,1.042Zm8.111-.2a3,3,0,0,0-1.758-.3,4.749,4.749,0,0,0,1.557.352,1.218,1.218,0,0,0,.226-.013q0-.013-.025-.038Z" transform="translate(710.514 71.796)" fill="red"/>
    </g>
    <g id="Group_161" data-name="Group 161">
      <g id="Path_132" data-name="Path 132" transform="translate(37.864 20)" fill="#fff">
        <path d="M 437 329.494140625 L 10 329.494140625 C 7.132500171661377 329.494140625 4.435555458068848 328.4070129394531 2.405999898910522 326.4330749511719 C 0.3708333373069763 324.45361328125 -0.75 321.8201904296875 -0.75 319.0179443359375 L -0.75 9.726181030273438 C -0.75 6.923959255218506 0.3708333373069763 4.290570259094238 2.405999898910522 2.311125755310059 C 4.435555458068848 0.3371258676052094 7.132500171661377 -0.7499852180480957 10 -0.7499852180480957 L 437 -0.7499852180480957 C 439.8674926757812 -0.7499852180480957 442.564453125 0.3371258676052094 444.593994140625 2.311125755310059 C 446.6291809082031 4.290570259094238 447.75 6.923959255218506 447.75 9.726181030273438 L 447.75 319.0179443359375 C 447.75 321.8202514648438 446.6291809082031 324.45361328125 444.593994140625 326.4330749511719 C 442.564453125 328.4070129394531 439.8675537109375 329.494140625 437 329.494140625 Z" stroke="none"/>
        <path d="M 10 0 C 4.47711181640625 0 0 4.354583740234375 0 9.7261962890625 L 0 319.0179443359375 C 0 324.3896179199219 4.47711181640625 328.744140625 10 328.744140625 L 437 328.744140625 C 442.5228271484375 328.744140625 447 324.3896179199219 447 319.0179443359375 L 447 9.7261962890625 C 447 4.354583740234375 442.5228271484375 0 437 0 L 10 0 M 10 -1.5 L 437 -1.5 C 440.0639038085938 -1.5 442.9465637207031 -0.337432861328125 445.1168823242188 1.773468017578125 C 447.2984924316406 3.895355224609375 448.5 6.719696044921875 448.5 9.7261962890625 L 448.5 319.0179443359375 C 448.5 322.0244445800781 447.2984924316406 324.8488464355469 445.1168823242188 326.9706726074219 C 442.9465637207031 329.0816345214844 440.0639343261719 330.244140625 437 330.244140625 L 10 330.244140625 C 6.936065673828125 330.244140625 4.053375244140625 329.0816345214844 1.883056640625 326.9706726074219 C -0.298553466796875 324.8488464355469 -1.5 322.0245056152344 -1.5 319.0179443359375 L -1.5 9.7261962890625 C -1.5 6.719696044921875 -0.298553466796875 3.895355224609375 1.883056640625 1.773468017578125 C 4.053436279296875 -0.337432861328125 6.936065673828125 -1.5 10 -1.5 Z" stroke="none" fill="#b3bee1"/>
      </g>
      <g id="Rectangle_130" data-name="Rectangle 130" transform="translate(350.864 199)" fill="#fff" stroke="#707070" stroke-width="0.4">
        <rect width="79.263" height="14" rx="7" stroke="none"/>
        <rect x="0.2" y="0.2" width="78.863" height="13.6" rx="6.8" fill="none"/>
      </g>
      <text id="Complains_New" data-name="Complains / New" transform="translate(52.864 43)" fill="#203881" font-size="13" font-family="Roboto-Regular, Roboto"><tspan x="0" y="0">Complains /</tspan><tspan y="0" fill="#776b9b"> </tspan><tspan y="0" fill="#8a8e92">New</tspan></text>
      <g id="Group_55" data-name="Group 55" transform="translate(98.425 56.283)">
        <g id="Rectangle_33" data-name="Rectangle 33" transform="translate(-0.345 -0.283)" fill="none" stroke="#d0d0d0" stroke-width="1">
          <rect width="51" height="16" rx="3" stroke="none"/>
          <rect x="0.5" y="0.5" width="50" height="15" rx="2.5" fill="none"/>
        </g>
        <text id="Create" transform="translate(9.155 11.217)" fill="#272b2f" font-size="11" font-family="Roboto-Medium, Roboto" font-weight="500"><tspan x="0" y="0">Create</tspan></text>
      </g>
      <path id="Path_56" data-name="Path 56" d="M-35.959,0h446.8" transform="translate(73.736 79.763)" fill="none" stroke="#e7e7e7" stroke-width="1"/>
      <text id="Partner" transform="translate(52.864 154)" fill="#495057" font-size="11" font-family="Roboto-Bold, Roboto" font-weight="700"><tspan x="0" y="0">Partner</tspan></text>
      <text id="Department" transform="translate(52.864 183)" fill="#495057" font-size="11" font-family="Roboto-Bold, Roboto" font-weight="700"><tspan x="0" y="0">Department</tspan></text>
      <text id="Date" transform="translate(52.864 209)" fill="#495057" font-size="11" font-family="Roboto-Bold, Roboto" font-weight="700"><tspan x="0" y="0">Date</tspan></text>
      <path id="Path_57" data-name="Path 57" d="M0,0H184.957" transform="translate(136.57 142.949) rotate(90)" fill="none" stroke="#e7e7e7" stroke-width="1"/>
      <g id="Group_64" data-name="Group 64" transform="translate(52.377 56.283)">
        <rect id="Rectangle_32" data-name="Rectangle 32" width="38" height="16" rx="3" transform="translate(0.487 -0.283)" fill="#203881"/>
        <text id="Edit" transform="translate(9.987 11.217)" fill="#fff" font-size="11" font-family="Roboto-Medium, Roboto" font-weight="500"><tspan x="0" y="0">Edit</tspan></text>
      </g>
      <path id="Path_118" data-name="Path 118" d="M-35.959,0h446.8" transform="translate(73.736 137)" fill="none" stroke="#e7e7e7" stroke-width="1"/>
      <text id="Complain_Details" data-name="Complain Details" transform="translate(52.864 131)" fill="#203881" font-size="12" font-family="Roboto-Bold, Roboto" font-weight="700"><tspan x="0" y="0">Complain Details</tspan></text>
      <text id="Email" transform="translate(52.864 237)" fill="#495057" font-size="11" font-family="Roboto-Bold, Roboto" font-weight="700"><tspan x="0" y="0">Email</tspan></text>
      <text id="Phone" transform="translate(52.864 263)" fill="#495057" font-size="11" font-family="Roboto-Bold, Roboto" font-weight="700"><tspan x="0" y="0">Phone</tspan></text>
      <text id="Notify_Update" data-name="Notify Update" transform="translate(52.864 291)" fill="#495057" font-size="11" font-family="Roboto-Bold, Roboto" font-weight="700"><tspan x="0" y="0">Notify Update</tspan></text>
      <text id="Description" transform="translate(52.864 320)" fill="#495057" font-size="11" font-family="Roboto-Bold, Roboto" font-weight="700"><tspan x="0" y="0">Description</tspan></text>
      <g id="Rectangle_77" data-name="Rectangle 77" transform="translate(143.864 286)" fill="#fff" stroke="#888" stroke-width="1">
        <rect width="9" height="9" rx="1" stroke="none"/>
        <rect x="0.5" y="0.5" width="8" height="8" rx="0.5" fill="none"/>
      </g>
      <text id="Type" transform="translate(281.864 183)" fill="#495057" font-size="11" font-family="Roboto-Bold, Roboto" font-weight="700"><tspan x="0" y="0">Type</tspan></text>
      <text id="Assigned" transform="translate(279.864 209)" fill="#495057" font-size="11" font-family="Roboto-Bold, Roboto" font-weight="700"><tspan x="0" y="0">Assigned</tspan></text>
      <path id="Path_119" data-name="Path 119" d="M0,0H153.5" transform="translate(340.327 142.949) rotate(90)" fill="none" stroke="#e7e7e7" stroke-width="1"/>
      <text id="Ticket_No" data-name="Ticket No" transform="translate(281.864 159)" fill="#495057" font-size="11" font-family="Roboto-Bold, Roboto" font-weight="700"><tspan x="0" y="0">Ticket No</tspan></text>
      <text id="New" transform="translate(350.864 159)" fill="#495057" font-size="11" font-family="Roboto-Regular, Roboto"><tspan x="0" y="0">New</tspan></text>
      <text id="Status" transform="translate(279.864 237)" fill="#495057" font-size="11" font-family="Roboto-Bold, Roboto" font-weight="700"><tspan x="0" y="0">Status</tspan></text>
      <text id="Rating" transform="translate(279.864 263)" fill="#495057" font-size="11" font-family="Roboto-Bold, Roboto" font-weight="700"><tspan x="0" y="0">Rating</tspan></text>
      <path id="Icon_ionic-ios-star-outline" data-name="Icon ionic-ios-star-outline" d="M22.13,10.017H15.345L13.283,3.864a.747.747,0,0,0-1.4,0L9.819,10.017H2.988a.74.74,0,0,0-.738.738.542.542,0,0,0,.014.125.709.709,0,0,0,.309.521l5.576,3.93-2.14,6.222a.74.74,0,0,0,.254.83.714.714,0,0,0,.415.18.9.9,0,0,0,.461-.166l5.443-3.879L18.025,22.4a.864.864,0,0,0,.461.166.663.663,0,0,0,.411-.18.731.731,0,0,0,.254-.83l-2.14-6.222,5.53-3.967.134-.115a.774.774,0,0,0,.24-.494A.781.781,0,0,0,22.13,10.017Zm-5.867,4.267a1.3,1.3,0,0,0-.47,1.467L17.181,19.8a.185.185,0,0,1-.281.212l-3.57-2.546a1.289,1.289,0,0,0-.752-.24,1.265,1.265,0,0,0-.747.24L8.26,20a.185.185,0,0,1-.281-.212l1.388-4.045a1.3,1.3,0,0,0-.475-1.476L5.156,11.636a.185.185,0,0,1,.106-.337H9.814a1.29,1.29,0,0,0,1.222-.881L12.4,6.35a.186.186,0,0,1,.351,0l1.365,4.068a1.29,1.29,0,0,0,1.222.881h4.488a.182.182,0,0,1,.106.332Z" transform="translate(371.859 250.133)" fill="#5a5a5a"/>
      <path id="Icon_ionic-ios-star-outline-2" data-name="Icon ionic-ios-star-outline" d="M22.13,10.017H15.345L13.283,3.864a.747.747,0,0,0-1.4,0L9.819,10.017H2.988a.74.74,0,0,0-.738.738.542.542,0,0,0,.014.125.709.709,0,0,0,.309.521l5.576,3.93-2.14,6.222a.74.74,0,0,0,.254.83.714.714,0,0,0,.415.18.9.9,0,0,0,.461-.166l5.443-3.879L18.025,22.4a.864.864,0,0,0,.461.166.663.663,0,0,0,.411-.18.731.731,0,0,0,.254-.83l-2.14-6.222,5.53-3.967.134-.115a.774.774,0,0,0,.24-.494A.781.781,0,0,0,22.13,10.017Zm-5.867,4.267a1.3,1.3,0,0,0-.47,1.467L17.181,19.8a.185.185,0,0,1-.281.212l-3.57-2.546a1.289,1.289,0,0,0-.752-.24,1.265,1.265,0,0,0-.747.24L8.26,20a.185.185,0,0,1-.281-.212l1.388-4.045a1.3,1.3,0,0,0-.475-1.476L5.156,11.636a.185.185,0,0,1,.106-.337H9.814a1.29,1.29,0,0,0,1.222-.881L12.4,6.35a.186.186,0,0,1,.351,0l1.365,4.068a1.29,1.29,0,0,0,1.222.881h4.488a.182.182,0,0,1,.106.332Z" transform="translate(394.702 250.133)" fill="#5a5a5a"/>
      <path id="Icon_ionic-ios-star-outline-3" data-name="Icon ionic-ios-star-outline" d="M22.13,10.017H15.345L13.283,3.864a.747.747,0,0,0-1.4,0L9.819,10.017H2.988a.74.74,0,0,0-.738.738.542.542,0,0,0,.014.125.709.709,0,0,0,.309.521l5.576,3.93-2.14,6.222a.74.74,0,0,0,.254.83.714.714,0,0,0,.415.18.9.9,0,0,0,.461-.166l5.443-3.879L18.025,22.4a.864.864,0,0,0,.461.166.663.663,0,0,0,.411-.18.731.731,0,0,0,.254-.83l-2.14-6.222,5.53-3.967.134-.115a.774.774,0,0,0,.24-.494A.781.781,0,0,0,22.13,10.017Zm-5.867,4.267a1.3,1.3,0,0,0-.47,1.467L17.181,19.8a.185.185,0,0,1-.281.212l-3.57-2.546a1.289,1.289,0,0,0-.752-.24,1.265,1.265,0,0,0-.747.24L8.26,20a.185.185,0,0,1-.281-.212l1.388-4.045a1.3,1.3,0,0,0-.475-1.476L5.156,11.636a.185.185,0,0,1,.106-.337H9.814a1.29,1.29,0,0,0,1.222-.881L12.4,6.35a.186.186,0,0,1,.351,0l1.365,4.068a1.29,1.29,0,0,0,1.222.881h4.488a.182.182,0,0,1,.106.332Z" transform="translate(417.545 250.133)" fill="#5a5a5a"/>
      <path id="Icon_ionic-ios-star-outline-4" data-name="Icon ionic-ios-star-outline" d="M22.13,10.017H15.345L13.283,3.864a.747.747,0,0,0-1.4,0L9.819,10.017H2.988a.74.74,0,0,0-.738.738.542.542,0,0,0,.014.125.709.709,0,0,0,.309.521l5.576,3.93-2.14,6.222a.74.74,0,0,0,.254.83.714.714,0,0,0,.415.18.9.9,0,0,0,.461-.166l5.443-3.879L18.025,22.4a.864.864,0,0,0,.461.166.663.663,0,0,0,.411-.18.731.731,0,0,0,.254-.83l-2.14-6.222,5.53-3.967.134-.115a.774.774,0,0,0,.24-.494A.781.781,0,0,0,22.13,10.017Zm-5.867,4.267a1.3,1.3,0,0,0-.47,1.467L17.181,19.8a.185.185,0,0,1-.281.212l-3.57-2.546a1.289,1.289,0,0,0-.752-.24,1.265,1.265,0,0,0-.747.24L8.26,20a.185.185,0,0,1-.281-.212l1.388-4.045a1.3,1.3,0,0,0-.475-1.476L5.156,11.636a.185.185,0,0,1,.106-.337H9.814a1.29,1.29,0,0,0,1.222-.881L12.4,6.35a.186.186,0,0,1,.351,0l1.365,4.068a1.29,1.29,0,0,0,1.222.881h4.488a.182.182,0,0,1,.106.332Z" transform="translate(440.387 250.133)" fill="#5a5a5a"/>
      <text id="Nurul_Syuhada" data-name="Nurul Syuhada" transform="translate(143.864 154)" fill="#495057" font-size="11" font-family="Roboto-Regular, Roboto"><tspan x="0" y="0">Nurul Syuhada</tspan></text>
      <text id="RCP" transform="translate(143.864 183)" fill="#495057" font-size="11" font-family="Roboto-Regular, Roboto"><tspan x="0" y="0">RCP</tspan></text>
      <text id="_08_09_2022" data-name="08/09/2022" transform="translate(143.864 209)" fill="#495057" font-size="11" font-family="Roboto-Regular, Roboto"><tspan x="0" y="0">08/09/2022</tspan></text>
      <text id="nurul_mail.com" data-name="nurul@mail.com" transform="translate(143.864 237)" fill="#495057" font-size="11" font-family="Roboto-Regular, Roboto"><tspan x="0" y="0">nurul@mail.com</tspan></text>
      <text id="_01234567890" data-name="01234567890" transform="translate(143.864 263)" fill="#495057" font-size="11" font-family="Roboto-Regular, Roboto"><tspan x="0" y="0">01234567890</tspan></text>
      <text id="Slow_Customer_Services" data-name="Slow Customer Services" transform="translate(143.864 320)" fill="#495057" font-size="11" font-family="Roboto-Regular, Roboto"><tspan x="0" y="0">Slow Customer Services</tspan></text>
      <text id="Customer_Service" data-name="Customer Service" transform="translate(350.864 183)" fill="#495057" font-size="11" font-family="Roboto-Regular, Roboto"><tspan x="0" y="0">Customer Service</tspan></text>
      <text id="Administrator" transform="translate(356.864 209)" fill="#495057" font-size="11" font-family="Roboto-Medium, Roboto" font-weight="500"><tspan x="0" y="0">Administrator</tspan></text>
      <text id="Closed-2" data-name="Closed" transform="translate(350.864 237)" fill="#495057" font-size="11" font-family="Roboto-Regular, Roboto"><tspan x="0" y="0">Closed</tspan></text>
      <path id="Icon_ionic-ios-star" data-name="Icon ionic-ios-star" d="M22.721,10.017H15.735L13.611,3.864a.778.778,0,0,0-1.444,0l-2.123,6.153H3.01a.751.751,0,0,0-.76.738.527.527,0,0,0,.014.125.7.7,0,0,0,.318.521l5.742,3.93-2.2,6.222a.728.728,0,0,0,.261.83.746.746,0,0,0,.427.18.949.949,0,0,0,.475-.166l5.6-3.879,5.6,3.879a.907.907,0,0,0,.475.166.692.692,0,0,0,.423-.18.719.719,0,0,0,.261-.83l-2.2-6.222,5.695-3.967.138-.115a.765.765,0,0,0,.247-.494A.8.8,0,0,0,22.721,10.017Z" transform="translate(348.401 250.133)" fill="#f3cc00"/>
      <g id="Group_148" data-name="Group 148" transform="translate(52.377 87.809)">
        <rect id="Rectangle_32-2" data-name="Rectangle 32" width="90.432" height="16" rx="3" transform="translate(0.487 -0.283)" fill="#203881"/>
        <text id="Print_Complain" data-name="Print Complain" transform="translate(9.203 11.217)" fill="#fff" font-size="11" font-family="Roboto-Medium, Roboto" font-weight="500"><tspan x="0" y="0">Print Complain</tspan></text>
      </g>
      <g id="Group_149" data-name="Group 149" transform="translate(149.877 87.809)">
        <rect id="Rectangle_32-3" data-name="Rectangle 32" width="67" height="16" rx="3" transform="translate(0.487 -0.283)" fill="#203881"/>
        <text id="Mark_Done" data-name="Mark Done" transform="translate(7.487 11.217)" fill="#fff" font-size="11" font-family="Roboto-Medium, Roboto" font-weight="500"><tspan x="0" y="0">Mark Done</tspan></text>
      </g>
      <path id="Path_152" data-name="Path 152" d="M-35.959,0h446.8" transform="translate(73.736 110.763)" fill="none" stroke="#e7e7e7" stroke-width="1"/>
    </g>
    <g id="Group_127" data-name="Group 127" transform="translate(309.222 -202.541)">
      <g transform="matrix(1, 0, 0, 1, -272.86, 221.04)" filter="url(#Rectangle_84)">
        <g id="Rectangle_84-3" data-name="Rectangle 84" transform="translate(277.27 320.96)" fill="#fff" stroke="#b3bee1" stroke-width="1.5">
          <rect width="278.678" height="90" rx="10" stroke="none"/>
          <rect x="0.75" y="0.75" width="277.178" height="88.5" rx="9.25" fill="none"/>
        </g>
      </g>
      <text id="Location_for_Complaint_Issued" data-name="Location for Complaint Issued" transform="translate(14.408 560)" fill="#203881" font-size="11" font-family="Roboto-Bold, Roboto" font-weight="700"><tspan x="0" y="0">Location for Complaint Issued</tspan></text>
      <path id="Path_120" data-name="Path 120" d="M-35.959,0H239.565" transform="translate(41.918 571)" fill="none" stroke="#e7e7e7" stroke-width="1"/>
      <text id="Latitude" transform="translate(14.408 589)" fill="#595959" font-size="11" font-family="Roboto-Bold, Roboto" font-weight="700"><tspan x="0" y="0">Latitude</tspan></text>
      <path id="Path_121" data-name="Path 121" d="M0,0H47.43" transform="translate(119.107 576.5) rotate(90)" fill="none" stroke="#e7e7e7" stroke-width="1"/>
      <text id="Longitud" transform="translate(14.408 617)" fill="#595959" font-size="11" font-family="Roboto-Bold, Roboto" font-weight="700"><tspan x="0" y="0">Longitud</tspan></text>
      <text id="_5_56_7.79_N" data-name="5째 56&apos; 7.79&quot; N" transform="translate(132.066 589)" fill="#595959" font-size="11" font-family="Roboto-Regular, Roboto"><tspan x="0" y="0">5째 56&apos; 7.79&quot; N</tspan></text>
      <text id="_116_03_2.40_E" data-name="116째 03&apos; 2.40&quot; E" transform="translate(133.383 617)" fill="#595959" font-size="11" font-family="Roboto-Regular, Roboto"><tspan x="0" y="0">116째 03&apos; 2.40&quot; E</tspan></text>
    </g>
    <g id="Group_146" data-name="Group 146" transform="translate(57.679 -190.5)">
      <g transform="matrix(1, 0, 0, 1, -21.32, 209)" filter="url(#Rectangle_84-2)">
        <g id="Rectangle_84-4" data-name="Rectangle 84" transform="translate(28.64 318)" fill="#fff" stroke="#b3bee1" stroke-width="1.5">
          <rect width="240.221" height="103" rx="10" stroke="none"/>
          <rect x="0.75" y="0.75" width="238.721" height="101.5" rx="9.25" fill="none"/>
        </g>
      </g>
      <text id="Image_Proof" data-name="Image Proof" transform="translate(17.322 545)" fill="#203881" font-size="11" font-family="Roboto-Bold, Roboto" font-weight="700"><tspan x="0" y="0">Image Proof</tspan></text>
      <path id="Path_120-2" data-name="Path 120" d="M-35.959,0h237.1" transform="translate(44.793 551.414)" fill="none" stroke="#e7e7e7" stroke-width="1"/>
      <text id="Image" transform="translate(17.322 573.559)" fill="#595959" font-size="11" font-family="Roboto-Bold, Roboto" font-weight="700"><tspan x="0" y="0">Image</tspan></text>
      <path id="Path_121-2" data-name="Path 121" d="M0,0H41.882" transform="translate(79.438 564.559) rotate(90)" fill="none" stroke="#e7e7e7" stroke-width="1"/>
      <rect id="Rectangle_128" data-name="Rectangle 128" width="143" height="45" transform="translate(87 563)" fill="#f2f2f2"/>
      <path id="Path_136" data-name="Path 136" d="M0,0H142.915" transform="translate(87 607.5)" fill="none" stroke="#888" stroke-width="0.5"/>
      <text id="PNG" transform="translate(132.09 601.5)" fill="#595959" font-size="9" font-family="Roboto-Regular, Roboto"><tspan x="0" y="0">PNG</tspan></text>
      <text id="Screenshot_2022-08-08_11.29.44_AM.png" data-name="Screenshot 2022-08-08
 11.29.44 AM.png" transform="translate(132.09 576.5)" fill="#595959" font-size="9" font-family="Roboto-Regular, Roboto"><tspan x="0" y="0">Screenshot 2022-08-08</tspan><tspan x="0" y="11" xml:space="preserve"> 11.29.44 AM.png</tspan></text>
      <g id="Rectangle_129" data-name="Rectangle 129" transform="translate(94 568)" fill="#fff" stroke="#5ba9b1" stroke-width="1">
        <rect width="30" height="36" rx="2" stroke="none"/>
        <rect x="0.5" y="0.5" width="29" height="35" rx="1.5" fill="none"/>
      </g>
      <circle id="Ellipse_33" data-name="Ellipse 33" cx="4" cy="4" r="4" transform="translate(112 576)" fill="#37a4af"/>
      <path id="Path_137" data-name="Path 137" d="M8.255-.983c4.884.558,6.584,4.467,11.9,4.989S28,.448,28,1V14a1,1,0,0,1-1,1H1a1,1,0,0,1-1-1V.412A14.428,14.428,0,0,1,8.255-.983Z" transform="translate(95 588)" fill="#cae6e9"/>
    </g>
    <g id="Group_150" data-name="Group 150" transform="translate(508.736 44.809)">
      <rect id="Rectangle_32-4" data-name="Rectangle 32" width="127" height="23" rx="3" transform="translate(0.487 -7.283)" fill="#203881"/>
      <text id="Generate_Report_" data-name="Generate Report " transform="translate(7.487 9.217)" fill="#fff" font-size="15" font-family="Roboto-Medium, Roboto" font-weight="500"><tspan x="0" y="0">Generate Report </tspan></text>
    </g>
    <g id="Group_170" data-name="Group 170">
      <g id="Path_131" data-name="Path 131" transform="translate(37.777 456.026)" fill="#fff">
        <path d="M 643.761474609375 292.2236633300781 L 10.9669771194458 292.2236633300781 C 5.333310604095459 292.2236633300781 0.7499772906303406 287.9486389160156 0.7499772906303406 282.6939086914062 L 0.7499772906303406 10.27981662750244 C 0.7499772906303406 5.025066375732422 5.333310604095459 0.7499830722808838 10.9669771194458 0.7499830722808838 L 643.761474609375 0.7499830722808838 C 649.3951416015625 0.7499830722808838 653.9784545898438 5.025066375732422 653.9784545898438 10.27981662750244 L 653.9784545898438 282.6939086914062 C 653.9784545898438 287.9486389160156 649.3951416015625 292.2236633300781 643.761474609375 292.2236633300781 Z" stroke="none"/>
        <path d="M 10.96697998046875 1.499969482421875 C 5.74688720703125 1.499969482421875 1.5 5.438568115234375 1.5 10.27981567382812 L 1.5 282.6939086914062 C 1.5 287.5350646972656 5.74688720703125 291.4736633300781 10.96697998046875 291.4736633300781 L 643.761474609375 291.4736633300781 C 648.9815673828125 291.4736633300781 653.2284545898438 287.5350646972656 653.2284545898438 282.6939086914062 L 653.2284545898438 10.27981567382812 C 653.2284545898438 5.438568115234375 648.9815673828125 1.499969482421875 643.761474609375 1.499969482421875 L 10.96697998046875 1.499969482421875 M 10.96697998046875 -3.0517578125e-05 L 643.761474609375 -3.0517578125e-05 C 649.8182983398438 -3.0517578125e-05 654.7284545898438 4.602386474609375 654.7284545898438 10.27981567382812 L 654.7284545898438 282.6939086914062 C 654.7284545898438 288.3712463378906 649.8182983398438 292.9736633300781 643.761474609375 292.9736633300781 L 10.96697998046875 292.9736633300781 C 4.9100341796875 292.9736633300781 0 288.3712463378906 0 282.6939086914062 L 0 10.27981567382812 C 0 4.602386474609375 4.9100341796875 -3.0517578125e-05 10.96697998046875 -3.0517578125e-05 Z" stroke="none" fill="#b3bee1"/>
      </g>
      <g id="Rectangle_82" data-name="Rectangle 82" transform="translate(46.777 510)" fill="#fff" stroke="#cfcfcf" stroke-width="1">
        <rect width="636.283" height="229" rx="11" stroke="none"/>
        <rect x="0.5" y="0.5" width="635.283" height="228" rx="10.5" fill="none"/>
      </g>
      <path id="Rectangle_63" data-name="Rectangle 63" d="M10,0H624.283a10,10,0,0,1,10,10V23a0,0,0,0,1,0,0H0a0,0,0,0,1,0,0V10A10,10,0,0,1,10,0Z" transform="translate(47.777 511)" fill="#eee"/>
      <rect id="Rectangle_64" data-name="Rectangle 64" width="634.283" height="23" transform="translate(47.777 534)" fill="#fcfcfc"/>
      <rect id="Rectangle_65" data-name="Rectangle 65" width="634.283" height="22" transform="translate(47.777 558)" fill="#fff"/>
      <rect id="Rectangle_66" data-name="Rectangle 66" width="634.283" height="23" transform="translate(47.777 579)" fill="#fcfcfc"/>
      <rect id="Rectangle_67" data-name="Rectangle 67" width="634.283" height="23" transform="translate(47.777 602)" fill="#fff"/>
      <path id="Path_113" data-name="Path 113" d="M0,0V22.167" transform="translate(109.349 511.458)" fill="none" stroke="#b5b2b2" stroke-width="0.5"/>
      <line id="Line_35" data-name="Line 35" y2="23" transform="translate(387.447 511)" fill="none" stroke="#b5b2b2" stroke-width="0.5"/>
      <path id="Path_114" data-name="Path 114" d="M0,0V22.091" transform="translate(497.326 511.458)" fill="none" stroke="#b5b2b2" stroke-width="0.5"/>
      <path id="Path_115" data-name="Path 115" d="M0,1.034V23.173" transform="translate(604.686 510.452)" fill="none" stroke="#b5b2b2" stroke-width="0.5"/>
      <text id="Ticket_No-2" data-name="Ticket No" transform="translate(56.777 525)" fill="#495057" font-size="11" font-family="Roboto-Bold, Roboto" font-weight="700" letter-spacing="0.011em"><tspan x="0" y="0">Ticket No</tspan></text>
      <text id="Partner-2" data-name="Partner" transform="translate(186.119 525)" fill="#495057" font-size="11" font-family="Roboto-Bold, Roboto" font-weight="700" letter-spacing="0.011em"><tspan x="0" y="0">Partner</tspan></text>
      <text id="Date-2" data-name="Date" transform="translate(114.777 525)" fill="#495057" font-size="11" font-family="Roboto-Bold, Roboto" font-weight="700" letter-spacing="0.011em"><tspan x="0" y="0">Date</tspan></text>
      <text id="C000001-2" data-name="C000001" transform="translate(56.777 548)" fill="#495057" font-size="11" font-family="Roboto-Regular, Roboto" letter-spacing="0.011em"><tspan x="0" y="0">C000001</tspan></text>
      <text id="C000002" transform="translate(56.777 570)" fill="#495057" font-size="11" font-family="Roboto-Regular, Roboto" letter-spacing="0.011em"><tspan x="0" y="0">C000002</tspan></text>
      <text id="C000003" transform="translate(56.777 593)" fill="#495057" font-size="11" font-family="Roboto-Regular, Roboto" letter-spacing="0.011em"><tspan x="0" y="0">C000003</tspan></text>
      <text id="C000004" transform="translate(56.777 616)" fill="#495057" font-size="11" font-family="Roboto-Regular, Roboto" letter-spacing="0.011em"><tspan x="0" y="0">C000004</tspan></text>
      <text id="Administrator-2" data-name="Administrator" transform="translate(186.902 548)" fill="#495057" font-size="11" font-family="Roboto-Regular, Roboto" letter-spacing="0.011em"><tspan x="0" y="0">Administrator</tspan></text>
      <text id="James_Doe" data-name="James Doe" transform="translate(186.578 570)" fill="#495057" font-size="11" font-family="Roboto-Regular, Roboto" letter-spacing="0.011em"><tspan x="0" y="0">James Doe</tspan></text>
      <text id="Assigned-2" data-name="Assigned" transform="translate(395.695 525)" fill="#495057" font-size="11" font-family="Roboto-Bold, Roboto" font-weight="700" letter-spacing="0.011em"><tspan x="0" y="0">Assigned</tspan></text>
      <text id="Duration_Days" data-name="Duration Days" transform="translate(507.369 524)" fill="#495057" font-size="11" font-family="Roboto-Bold, Roboto" font-weight="700" letter-spacing="0.011em"><tspan x="0" y="0">Duration Days</tspan></text>
      <text id="Status-2" data-name="Status" transform="translate(629.06 524)" fill="#495057" font-size="11" font-family="Roboto-Bold, Roboto" font-weight="700" letter-spacing="0.011em"><tspan x="0" y="0">Status</tspan></text>
      <text id="No_record" data-name="No record" transform="translate(395.823 548)" fill="#495057" font-size="11" font-family="Roboto-Regular, Roboto" letter-spacing="0.011em"><tspan x="0" y="0">No record</tspan></text>
      <text id="_6" data-name="6" transform="translate(503.265 548)" fill="#495057" font-size="11" font-family="Roboto-Regular, Roboto" letter-spacing="0.011em"><tspan x="0" y="0">6</tspan></text>
      <text id="_6-2" data-name="6" transform="translate(503.265 570)" fill="#495057" font-size="11" font-family="Roboto-Regular, Roboto" letter-spacing="0.011em"><tspan x="0" y="0">6</tspan></text>
      <text id="_6-3" data-name="6" transform="translate(503.265 594)" fill="#495057" font-size="11" font-family="Roboto-Regular, Roboto" letter-spacing="0.011em"><tspan x="0" y="0">6</tspan></text>
      <text id="_6-4" data-name="6" transform="translate(503.265 616)" fill="#495057" font-size="11" font-family="Roboto-Regular, Roboto" letter-spacing="0.011em"><tspan x="0" y="0">6</tspan></text>
      <path id="Path_116" data-name="Path 116" d="M0,0V22.167" transform="translate(180.002 511.458)" fill="none" stroke="#b5b2b2" stroke-width="0.5"/>
      <path id="Path_117" data-name="Path 117" d="M118.694,0V22.167" transform="translate(142.688 511.458)" fill="none" stroke="#b5b2b2" stroke-width="0.5"/>
      <text id="Type-2" data-name="Type" transform="translate(267.42 525)" fill="#495057" font-size="11" font-family="Roboto-Bold, Roboto" font-weight="700" letter-spacing="0.011em"><tspan x="0" y="0">Type</tspan></text>
      <text id="_08_10_2022" data-name="08/10/2022" transform="translate(114.777 548)" fill="#495057" font-size="11" font-family="Roboto-Regular, Roboto" letter-spacing="0.011em"><tspan x="0" y="0">08/10/2022</tspan></text>
      <text id="_08_10_2022-2" data-name="08/10/2022" transform="translate(114.777 570)" fill="#495057" font-size="11" font-family="Roboto-Regular, Roboto" letter-spacing="0.011em"><tspan x="0" y="0">08/10/2022</tspan></text>
      <text id="_08_10_2022-3" data-name="08/10/2022" transform="translate(114.777 594)" fill="#495057" font-size="11" font-family="Roboto-Regular, Roboto" letter-spacing="0.011em"><tspan x="0" y="0">08/10/2022</tspan></text>
      <text id="_08_10_2022-4" data-name="08/10/2022" transform="translate(114.777 616)" fill="#495057" font-size="11" font-family="Roboto-Regular, Roboto" letter-spacing="0.011em"><tspan x="0" y="0">08/10/2022</tspan></text>
      <text id="James_Doe-2" data-name="James Doe" transform="translate(186.578 593)" fill="#495057" font-size="11" font-family="Roboto-Regular, Roboto" letter-spacing="0.011em"><tspan x="0" y="0">James Doe</tspan></text>
      <text id="Farhan_Daud" data-name="Farhan Daud" transform="translate(186.765 616)" fill="#495057" font-size="11" font-family="Roboto-Regular, Roboto" letter-spacing="0.011em"><tspan x="0" y="0">Farhan Daud</tspan></text>
      <text id="General_Information" data-name="General Information" transform="translate(271.764 548)" fill="#495057" font-size="11" font-family="Roboto-Regular, Roboto" letter-spacing="0.011em"><tspan x="0" y="0">General Information</tspan></text>
      <text id="Customer_Service-2" data-name="Customer Service" transform="translate(270.11 570)" fill="#495057" font-size="11" font-family="Roboto-Regular, Roboto" letter-spacing="0.011em"><tspan x="0" y="0">Customer Service</tspan></text>
      <text id="Customer_Service-3" data-name="Customer Service" transform="translate(270.11 593)" fill="#495057" font-size="11" font-family="Roboto-Regular, Roboto" letter-spacing="0.011em"><tspan x="0" y="0">Customer Service</tspan></text>
      <text id="Document_Processing-2" data-name="Document Processing" transform="translate(272.327 616)" fill="#495057" font-size="11" font-family="Roboto-Regular, Roboto" letter-spacing="0.011em"><tspan x="0" y="0">Document Processing</tspan></text>
      <text id="No_record-2" data-name="No record" transform="translate(395.823 570)" fill="#495057" font-size="11" font-family="Roboto-Regular, Roboto" letter-spacing="0.011em"><tspan x="0" y="0">No record</tspan></text>
      <text id="_1_record" data-name="1 record" transform="translate(395.316 593)" fill="#495057" font-size="11" font-family="Roboto-Regular, Roboto" letter-spacing="0.011em"><tspan x="0" y="0">1 record</tspan></text>
      <text id="_1_record-2" data-name="1 record" transform="translate(395.316 616)" fill="#495057" font-size="11" font-family="Roboto-Regular, Roboto" letter-spacing="0.011em"><tspan x="0" y="0">1 record</tspan></text>
      <g id="Group_77" data-name="Group 77" transform="translate(630.06 562)">
        <rect id="Rectangle_46" data-name="Rectangle 46" width="29" height="13" rx="6.5" transform="translate(0 0)" fill="#eb99a1"/>
        <text id="Open" transform="translate(3 10)" fill="#495057" font-size="10" font-family="Roboto-Regular, Roboto"><tspan x="0" y="0">Open</tspan></text>
      </g>
      <g id="Group_78" data-name="Group 78" transform="translate(630.06 584)">
        <rect id="Rectangle_46-2" data-name="Rectangle 46" width="29" height="14" rx="7" fill="#28a745"/>
        <text id="Close" transform="translate(2 10.5)" fill="#495057" font-size="10" font-family="Roboto-Regular, Roboto"><tspan x="0" y="0">Close</tspan></text>
      </g>
      <path id="Rectangle_68" data-name="Rectangle 68" d="M0,0H634.283a0,0,0,0,1,0,0V12a10,10,0,0,1-10,10H10A10,10,0,0,1,0,12V0A0,0,0,0,1,0,0Z" transform="translate(47.777 716)" fill="#fcfcfc"/>
      <rect id="Rectangle_69" data-name="Rectangle 69" width="634.283" height="23" transform="translate(47.777 625)" fill="#fcfcfc"/>
      <rect id="Rectangle_70" data-name="Rectangle 70" width="634.283" height="22" transform="translate(47.777 648)" fill="#fff"/>
      <rect id="Rectangle_71" data-name="Rectangle 71" width="634.283" height="24" transform="translate(47.777 669)" fill="#fcfcfc"/>
      <rect id="Rectangle_72" data-name="Rectangle 72" width="634.283" height="23" transform="translate(47.777 693)" fill="#fff"/>
      <text id="C000005" transform="translate(56.777 639)" fill="#495057" font-size="11" font-family="Roboto-Regular, Roboto" letter-spacing="0.011em"><tspan x="0" y="0">C000005</tspan></text>
      <text id="C000006" transform="translate(56.777 662)" fill="#495057" font-size="11" font-family="Roboto-Regular, Roboto" letter-spacing="0.011em"><tspan x="0" y="0">C000006</tspan></text>
      <text id="C000007" transform="translate(56.777 683)" fill="#495057" font-size="11" font-family="Roboto-Regular, Roboto" letter-spacing="0.011em"><tspan x="0" y="0">C000007</tspan></text>
      <text id="C000008" transform="translate(56.777 707)" fill="#495057" font-size="11" font-family="Roboto-Regular, Roboto" letter-spacing="0.011em"><tspan x="0" y="0">C000008</tspan></text>
      <text id="Farhan_Daud-2" data-name="Farhan Daud" transform="translate(186.765 639)" fill="#495057" font-size="11" font-family="Roboto-Regular, Roboto" letter-spacing="0.011em"><tspan x="0" y="0">Farhan Daud</tspan></text>
      <text id="Farhan_Daud-3" data-name="Farhan Daud" transform="translate(186.765 662)" fill="#495057" font-size="11" font-family="Roboto-Regular, Roboto" letter-spacing="0.011em"><tspan x="0" y="0">Farhan Daud</tspan></text>
      <text id="_1_record-3" data-name="1 record" transform="translate(395.316 639)" fill="#495057" font-size="11" font-family="Roboto-Regular, Roboto" letter-spacing="0.011em"><tspan x="0" y="0">1 record</tspan></text>
      <text id="_4" data-name="4" transform="translate(503.265 639)" fill="#495057" font-size="11" font-family="Roboto-Regular, Roboto" letter-spacing="0.011em"><tspan x="0" y="0">4</tspan></text>
      <text id="_2" data-name="2" transform="translate(503.265 662)" fill="#495057" font-size="11" font-family="Roboto-Regular, Roboto" letter-spacing="0.011em"><tspan x="0" y="0">2</tspan></text>
      <text id="_1" data-name="1" transform="translate(503.265 684)" fill="#495057" font-size="11" font-family="Roboto-Regular, Roboto" letter-spacing="0.011em"><tspan x="0" y="0">1</tspan></text>
      <text id="_1-2" data-name="1" transform="translate(503.265 707)" fill="#495057" font-size="11" font-family="Roboto-Regular, Roboto" letter-spacing="0.011em"><tspan x="0" y="0">1</tspan></text>
      <text id="C000009" transform="translate(56.777 729)" fill="#495057" font-size="11" font-family="Roboto-Regular, Roboto" letter-spacing="0.011em"><tspan x="0" y="0">C000009</tspan></text>
      <text id="_1-3" data-name="1" transform="translate(503.265 729)" fill="#495057" font-size="11" font-family="Roboto-Regular, Roboto" letter-spacing="0.011em"><tspan x="0" y="0">1</tspan></text>
      <text id="_08_12_2022" data-name="08/12/2022" transform="translate(114.777 639)" fill="#495057" font-size="11" font-family="Roboto-Regular, Roboto" letter-spacing="0.011em"><tspan x="0" y="0">08/12/2022</tspan></text>
      <text id="_08_14_2022" data-name="08/14/2022" transform="translate(114.777 662)" fill="#495057" font-size="11" font-family="Roboto-Regular, Roboto" letter-spacing="0.011em"><tspan x="0" y="0">08/14/2022</tspan></text>
      <text id="_08_15_2022" data-name="08/15/2022" transform="translate(114.777 684)" fill="#495057" font-size="11" font-family="Roboto-Regular, Roboto" letter-spacing="0.011em"><tspan x="0" y="0">08/15/2022</tspan></text>
      <text id="_08_15_2022-2" data-name="08/15/2022" transform="translate(114.777 707)" fill="#495057" font-size="11" font-family="Roboto-Regular, Roboto" letter-spacing="0.011em"><tspan x="0" y="0">08/15/2022</tspan></text>
      <text id="_08_15_2022-3" data-name="08/15/2022" transform="translate(114.777 729)" fill="#495057" font-size="11" font-family="Roboto-Regular, Roboto" letter-spacing="0.011em"><tspan x="0" y="0">08/15/2022</tspan></text>
      <text id="Liza" transform="translate(185.689 683)" fill="#495057" font-size="11" font-family="Roboto-Regular, Roboto" letter-spacing="0.011em"><tspan x="0" y="0">Liza</tspan></text>
      <text id="Liza-2" data-name="Liza" transform="translate(185.689 707)" fill="#495057" font-size="11" font-family="Roboto-Regular, Roboto" letter-spacing="0.011em"><tspan x="0" y="0">Liza</tspan></text>
      <text id="John_Doe" data-name="John Doe" transform="translate(186.344 729)" fill="#495057" font-size="11" font-family="Roboto-Regular, Roboto" letter-spacing="0.011em"><tspan x="0" y="0">John Doe</tspan></text>
      <text id="Document_Processing-3" data-name="Document Processing" transform="translate(272.327 639)" fill="#495057" font-size="11" font-family="Roboto-Regular, Roboto" letter-spacing="0.011em"><tspan x="0" y="0">Document Processing</tspan></text>
      <text id="Customer_Service-4" data-name="Customer Service" transform="translate(270.11 662)" fill="#495057" font-size="11" font-family="Roboto-Regular, Roboto" letter-spacing="0.011em"><tspan x="0" y="0">Customer Service</tspan></text>
      <text id="Customer_Service-5" data-name="Customer Service" transform="translate(270.11 683)" fill="#495057" font-size="11" font-family="Roboto-Regular, Roboto" letter-spacing="0.011em"><tspan x="0" y="0">Customer Service</tspan></text>
      <text id="Customer_Service-6" data-name="Customer Service" transform="translate(270.11 707)" fill="#495057" font-size="11" font-family="Roboto-Regular, Roboto" letter-spacing="0.011em"><tspan x="0" y="0">Customer Service</tspan></text>
      <text id="Customer_Service-7" data-name="Customer Service" transform="translate(270.11 729)" fill="#495057" font-size="11" font-family="Roboto-Regular, Roboto" letter-spacing="0.011em"><tspan x="0" y="0">Customer Service</tspan></text>
      <text id="_0_record" data-name="0 record" transform="translate(395.316 662)" fill="#495057" font-size="11" font-family="Roboto-Regular, Roboto" letter-spacing="0.011em"><tspan x="0" y="0">0 record</tspan></text>
      <text id="_0_record-2" data-name="0 record" transform="translate(395.316 683)" fill="#495057" font-size="11" font-family="Roboto-Regular, Roboto" letter-spacing="0.011em"><tspan x="0" y="0">0 record</tspan></text>
      <text id="_0_record-3" data-name="0 record" transform="translate(395.316 707)" fill="#495057" font-size="11" font-family="Roboto-Regular, Roboto" letter-spacing="0.011em"><tspan x="0" y="0">0 record</tspan></text>
      <text id="_0_record-4" data-name="0 record" transform="translate(395.316 729)" fill="#495057" font-size="11" font-family="Roboto-Regular, Roboto" letter-spacing="0.011em"><tspan x="0" y="0">0 record</tspan></text>
      <text id="Complains" transform="translate(46.777 478)" fill="#203881" font-size="13" font-family="Roboto-Bold, Roboto" font-weight="700"><tspan x="0" y="0">Complains</tspan></text>
      <g id="Group_95" data-name="Group 95" transform="translate(47.471 488.817)">
        <rect id="Rectangle_32-5" data-name="Rectangle 32" width="47.827" height="13" rx="1" transform="translate(0.306 1.183)" fill="#203881"/>
        <text id="Save" transform="translate(12.219 11.183)" fill="#fff" font-size="11" font-family="Roboto-Medium, Roboto" font-weight="500"><tspan x="0" y="0">Save</tspan></text>
      </g>
      <g id="Group_162" data-name="Group 162" transform="translate(9)">
        <g id="Group_96" data-name="Group 96" transform="translate(89.608 490.474)">
          <g id="Rectangle_33-2" data-name="Rectangle 33" transform="translate(0.169 -0.474)" fill="none" stroke="#5a5a5a" stroke-width="0.2">
            <rect width="14" height="13" rx="1" stroke="none"/>
            <rect x="0.1" y="0.1" width="13.8" height="12.8" rx="0.9" fill="none"/>
          </g>
        </g>
        <path id="Icon_awesome-download" data-name="Icon awesome-download" d="M3.371,0H4.62a.374.374,0,0,1,.375.375V3H6.364a.312.312,0,0,1,.22.532L4.21,5.9a.3.3,0,0,1-.426,0L1.406,3.529A.312.312,0,0,1,1.626,3H3V.375A.374.374,0,0,1,3.371,0Zm4.62,5.869V7.617a.374.374,0,0,1-.375.375H.375A.374.374,0,0,1,0,7.617V5.869a.374.374,0,0,1,.375-.375h2.29l.765.765a.8.8,0,0,0,1.133,0l.765-.765h2.29A.374.374,0,0,1,7.992,5.869ZM6.056,7.242a.312.312,0,1,0-.312.312A.313.313,0,0,0,6.056,7.242Zm1,0a.312.312,0,1,0-.312.312A.313.313,0,0,0,7.055,7.242Z" transform="translate(92.781 492.504)"/>
      </g>
      <g id="Group_163" data-name="Group 163" transform="translate(630.06 539)">
        <rect id="Rectangle_46-3" data-name="Rectangle 46" width="29" height="13" rx="6.5" transform="translate(0 0)" fill="#eb99a1"/>
        <text id="Open-2" data-name="Open" transform="translate(3 10)" fill="#495057" font-size="10" font-family="Roboto-Regular, Roboto"><tspan x="0" y="0">Open</tspan></text>
      </g>
      <g id="Group_164" data-name="Group 164" transform="translate(630.06 607)">
        <rect id="Rectangle_46-4" data-name="Rectangle 46" width="29" height="13" rx="6.5" transform="translate(0 0)" fill="#eb99a1"/>
        <text id="Open-3" data-name="Open" transform="translate(3 10)" fill="#495057" font-size="10" font-family="Roboto-Regular, Roboto"><tspan x="0" y="0">Open</tspan></text>
      </g>
      <g id="Group_165" data-name="Group 165" transform="translate(630.06 630)">
        <rect id="Rectangle_46-5" data-name="Rectangle 46" width="29" height="13" rx="6.5" transform="translate(0 0)" fill="#eb99a1"/>
        <text id="Open-4" data-name="Open" transform="translate(3 10)" fill="#495057" font-size="10" font-family="Roboto-Regular, Roboto"><tspan x="0" y="0">Open</tspan></text>
      </g>
      <g id="Group_166" data-name="Group 166" transform="translate(630.06 652.5)">
        <rect id="Rectangle_46-6" data-name="Rectangle 46" width="29" height="13" rx="6.5" transform="translate(0 0)" fill="#eb99a1"/>
        <text id="Open-5" data-name="Open" transform="translate(3 10)" fill="#495057" font-size="10" font-family="Roboto-Regular, Roboto"><tspan x="0" y="0">Open</tspan></text>
      </g>
      <g id="Group_167" data-name="Group 167" transform="translate(630.06 674.5)">
        <rect id="Rectangle_46-7" data-name="Rectangle 46" width="29" height="13" rx="6.5" transform="translate(0 0)" fill="#eb99a1"/>
        <text id="Open-6" data-name="Open" transform="translate(3 10)" fill="#495057" font-size="10" font-family="Roboto-Regular, Roboto"><tspan x="0" y="0">Open</tspan></text>
      </g>
      <g id="Group_168" data-name="Group 168" transform="translate(630.06 697)">
        <rect id="Rectangle_46-8" data-name="Rectangle 46" width="29" height="13" rx="6.5" transform="translate(0 0)" fill="#eb99a1"/>
        <text id="Open-7" data-name="Open" transform="translate(3 10)" fill="#495057" font-size="10" font-family="Roboto-Regular, Roboto"><tspan x="0" y="0">Open</tspan></text>
      </g>
      <g id="Group_169" data-name="Group 169" transform="translate(630.06 719)">
        <rect id="Rectangle_46-9" data-name="Rectangle 46" width="29" height="13" rx="6.5" transform="translate(0 0)" fill="#eb99a1"/>
        <text id="Open-8" data-name="Open" transform="translate(3 10)" fill="#495057" font-size="10" font-family="Roboto-Regular, Roboto"><tspan x="0" y="0">Open</tspan></text>
      </g>
    </g>
  </g>
</svg>
